PathFileType	4	(X/Y/Z)	C:\Users\86182\Documents\cortex\Trimmed_M4_H3.trc
DataRate	CameraRate	NumFrames	NumMarkers	Units	OrigDataRate	OrigDataStartFrame	OrigNumFrames
100.00	100.00	       70	2	mm	100.00	541	       901
Frame#	Time	gripper			box			
		X1	Y1	Z1	X2	Y2	Z2	

541	5.400	275.88846	150.98805	292.35803	278.91849	147.19685	156.56390	
542	5.410	275.89020	150.99159	292.35925	278.91919	147.19731	156.56464	
543	5.420	275.89203	150.99472	292.36035	278.91977	147.19804	156.56606	
544	5.430	275.89340	150.99759	292.36154	278.91998	147.19891	156.56799	
545	5.440	275.89392	151.00015	292.36298	278.91956	147.19986	156.57042	
546	5.450	275.89340	151.00215	292.36456	278.91830	147.20084	156.57336	
547	5.460	275.89197	151.00325	292.36618	278.91608	147.20183	156.57680	
548	5.470	275.88968	151.00323	292.36765	278.91293	147.20280	156.58069	
549	5.480	275.88681	151.00206	292.36884	278.90912	147.20378	156.58488	
550	5.490	275.88403	150.99997	292.36960	278.90518	147.20468	156.58897	
551	5.500	275.88226	150.99753	292.36975	278.90179	147.20546	156.59247	
552	5.510	275.88263	150.99551	292.36917	278.89957	147.20605	156.59499	
553	5.520	275.88583	150.99454	292.36780	278.89871	147.20633	156.59607	
554	5.530	275.89166	150.99471	292.36566	278.89951	147.20612	156.59515	
555	5.540	275.89883	150.99580	292.36288	278.90192	147.20531	156.59206	
556	5.550	275.90552	150.99739	292.35983	278.90536	147.20398	156.58720	
557	5.560	275.90985	150.99904	292.35693	278.90912	147.20236	156.58153	
558	5.570	275.91046	151.00024	292.35461	278.91235	147.20070	156.57600	
559	5.580	275.90695	151.00064	292.35324	278.91464	147.19922	156.57138	
560	5.590	275.90009	151.00024	292.35303	278.91571	147.19814	156.56830	
561	5.600	275.89142	150.99933	292.35406	278.91553	147.19769	156.56740	
562	5.610	275.88235	150.99818	292.35623	278.91412	147.19807	156.56905	
563	5.620	275.87384	150.99702	292.35925	278.91168	147.19923	156.57304	
564	5.630	275.86652	150.99590	292.36249	278.90845	147.20079	156.57846	
565	5.640	275.86118	150.99489	292.36508	278.90463	147.20227	156.58397	
566	5.650	275.85852	150.99409	292.36639	278.90085	147.20329	156.58842	
567	5.660	275.85880	150.99356	292.36609	278.89810	147.20377	156.59100	
568	5.670	275.86182	150.99344	292.36423	278.89743	147.20372	156.59129	
569	5.680	275.86722	150.99391	292.36111	278.89917	147.20332	156.58940	
570	5.690	275.87460	150.99509	292.35736	278.90295	147.20268	156.58589	
571	5.700	275.88336	150.99687	292.35361	278.90765	147.20183	156.58139	
572	5.710	275.89240	150.99887	292.35065	278.91208	147.20079	156.57655	
573	5.720	275.90021	151.00056	292.34909	278.91541	147.19965	156.57214	
574	5.730	275.90540	151.00140	292.34918	278.91711	147.19864	156.56885	
575	5.740	275.90729	151.00111	292.35071	278.91705	147.19791	156.56711	
576	5.750	275.90582	150.99971	292.35303	278.91522	147.19743	156.56691	
577	5.760	275.90115	150.99739	292.35562	278.91171	147.19713	156.56798	
578	5.770	275.89337	150.99437	292.35809	278.90692	147.19693	156.56990	
579	5.780	275.88300	150.99097	292.36011	278.90164	147.19679	156.57225	
580	5.790	275.87122	150.98759	292.36154	278.89685	147.19670	156.57448	
581	5.800	275.85971	150.98483	292.36224	278.89334	147.19666	156.57613	
582	5.810	275.85025	150.98315	292.36230	278.89154	147.19659	156.57690	
583	5.820	275.84424	150.98277	292.36191	278.89157	147.19650	156.57664	
584	5.830	275.84277	150.98360	292.36121	278.89322	147.19633	156.57533	
585	5.840	275.84595	150.98541	292.36026	278.89578	147.19597	156.57306	
586	5.850	275.85321	150.98813	292.35922	278.89874	147.19537	156.56998	
587	5.860	275.86374	150.99174	292.35822	278.90182	147.19466	156.56651	
588	5.870	275.87622	150.99585	292.35742	278.90497	147.19414	156.56343	
589	5.880	275.88873	150.99956	292.35675	278.90823	147.19400	156.56126	
590	5.890	275.89926	151.00186	292.35605	278.91144	147.19426	156.56013	
591	5.900	275.90656	151.00223	292.35522	278.91425	147.19476	156.55994	
592	5.910	275.91040	151.00073	292.35419	278.91626	147.19533	156.56047	
593	5.920	275.91132	150.99794	292.35306	278.91739	147.19589	156.56154	
594	5.930	275.91006	150.99471	292.35211	278.91757	147.19637	156.56300	
595	5.940	275.90726	150.99196	292.35175	278.91690	147.19675	156.56476	
596	5.950	275.90323	150.99028	292.35229	278.91562	147.19702	156.56668	
597	5.960	275.89877	150.98970	292.35364	278.91400	147.19727	156.56885	
598	5.970	275.89496	150.98993	292.35547	278.91251	147.19762	156.57127	
599	5.980	275.89264	150.99078	292.35730	278.91144	147.19814	156.57384	
600	5.990	275.89194	150.99207	292.35892	278.91098	147.19882	156.57625	
601	6.000	275.89233	150.99339	292.36011	278.91122	147.19958	156.57802	
602	6.010	275.89343	150.99443	292.36084	278.91232	147.20023	156.57857	
603	6.020	275.89505	150.99516	292.36099	278.91400	147.20052	156.57764	
604	6.030	275.89697	150.99576	292.36053	278.91571	147.20032	156.57544	
605	6.040	275.89862	150.99614	292.35956	278.91699	147.19968	156.57251	
606	6.050	275.89951	150.99603	292.35831	278.91760	147.19875	156.56943	
607	6.060	275.89957	150.99519	292.35703	278.91748	147.19774	156.56673	
608	6.070	275.89926	150.99358	292.35596	278.91672	147.19688	156.56487	
609	6.080	275.89923	150.99147	292.35529	278.91556	147.19640	156.56416	
610	6.090	275.89987	150.98923	292.35495	278.91428	147.19624	156.56441	
